<?xml version="1.0" encoding="UTF-8"?>
<svg width="512px" height="512px" viewBox="0 0 512 512" version="1.1" xmlns="http://www.w3.org/2000/svg" xmlns:xlink="http://www.w3.org/1999/xlink" xmlns:sketch="http://www.bohemiancoding.com/sketch/ns">
    <!-- Generator: Sketch 3.4.2 (15855) - http://www.bohemiancoding.com/sketch -->
    <title>icon</title>
    <desc>Created with Sketch.</desc>
    <defs>
        <path id="path-1" d="M0,0.0549159289 L303.949055,0.0549159289 L303.949055,303.761721 L0,303.761721"></path>
    </defs>
    <g id="Page-1" stroke="none" stroke-width="1" fill="none" fill-rule="evenodd" sketch:type="MSPage">
        <g id="icon" sketch:type="MSArtboardGroup">
            <circle id="Oval-1" fill="#4D4D4B" sketch:type="MSShapeGroup" cx="256" cy="256" r="256"></circle>
            <g id="Qbanklogo2019_emblem_cmyk" sketch:type="MSLayerGroup" transform="translate(103.000000, 106.000000)">
                <mask id="mask-2" sketch:name="Clip 2" fill="white">
                    <use xlink:href="#path-1"></use>
                </mask>
                <g id="Clip-2"></g>
                <path d="M167.712874,200.416024 C159.039508,209.065562 145.004859,209.049676 136.319579,200.372339 L103.615747,167.660565 C94.9384096,158.971313 94.918553,144.940635 103.568091,136.267269 L136.216324,103.619036 C144.842034,94.9655263 158.92434,94.9814116 167.605649,103.678605 L200.289624,136.386409 C208.970933,145.079631 209.006674,159.098396 200.313452,167.755876 L167.712874,200.416024" id="Fill-1" fill="#00A6DB" sketch:type="MSShapeGroup" mask="url(#mask-2)"></path>
                <path d="M283.944138,99.960966 L205.857202,21.8860161 C176.758391,-7.24076275 129.260566,-7.22877642 100.081847,21.9619295 L21.9150015,100.156743 C-7.27570444,129.331467 -7.30766798,176.801324 21.839088,205.940089 L99.8860698,283.987071 C129.02084,313.161795 176.514669,313.121841 205.677407,283.93513 L228.543327,261.077201 L197.49474,230.028614 L174.640807,252.85458 C162.606533,264.90084 142.996899,264.948785 130.970616,252.894534 L52.9396157,174.863534 C40.8853644,162.825265 40.8853644,143.219626 52.9715792,131.197339 L131.134429,53.0185072 C143.164707,40.9602605 162.770346,40.9322924 174.792634,52.9825482 L252.819638,131.037521 C264.861903,143.055813 264.861903,162.657456 252.79167,174.711707 L229.374379,198.121007 L260.438948,229.161603 L283.860234,205.740317 C313.070917,176.577579 313.114867,129.09174 283.944138,99.960966" id="Fill-3" fill="#00A3DB" sketch:type="MSShapeGroup" mask="url(#mask-2)"></path>
            </g>
        </g>
    </g>
</svg>